# xmcd CD database file
#
# Track frame offsets:
#	150
#	7206
#	28483
#	37631
#	53543
#	61424
#	79779
#	87046
#	103704
#	113073
#
# Disc length: 1706 seconds
#
# Revision: 2
# Processed by: cddbd v1.5PL3 Copyright (c) Steve Scherf et al.
# Submitted via: CDex 1.50
#
DISCID=7306a80a
DTITLE=ゆめりあなひとたち - ゆめりあ Fan☆FunCD DISC2
DYEAR=1900
DGENRE=Anime
TTITLE0=ありがとう
TTITLE1=もしもね、もしも
TTITLE2=ずっと一緒に…
TTITLE3=いつもそばに
TTITLE4=守ってあげる
TTITLE5=八番目の海
TTITLE6=ズバリ、キメてね！
TTITLE7=Spectacle Summer
TTITLE8=う〜ん、謎なのだ
TTITLE9=カモ〜ン ダーリン！！
EXTD=
EXTT0=
EXTT1=
EXTT2=
EXTT3=
EXTT4=
EXTT5=
EXTT6=
EXTT7=
EXTT8=
EXTT9=
PLAYORDER=
